<svg width="1600" height="760" viewBox="0 0 1600 760" xmlns="http://www.w3.org/2000/svg" preserveAspectRatio="xMidYMid slice">
  <defs>
    <linearGradient id="bg1" x1="0" y1="0" x2="1" y2="1">
      <stop offset="0" stop-color="#0d6efd"/>
      <stop offset="1" stop-color="#6610f2"/>
    </linearGradient>
    <radialGradient id="g1" cx="0.5" cy="0.5" r="0.5">
      <stop offset="0" stop-color="#ffffff" stop-opacity="0.25"/>
      <stop offset="1" stop-color="#ffffff" stop-opacity="0"/>
    </radialGradient>
  </defs>
  <rect width="1600" height="760" fill="url(#bg1)"/>
  <circle cx="1180" cy="140" r="300" fill="url(#g1)"/>
  <circle cx="120" cy="620" r="360" fill="url(#g1)"/>
  <circle cx="520" cy="120" r="140" fill="#ffffff" fill-opacity="0.10"/>
  <path d="M0 560 C300 480 520 640 820 560 C1120 480 1340 560 1600 500 L1600 760 L0 760 Z" fill="#ffffff" fill-opacity="0.08"/>
  <path d="M0 620 C320 540 560 700 860 620 C1160 540 1380 640 1600 580 L1600 760 L0 760 Z" fill="#ffffff" fill-opacity="0.06"/>
  <g fill="#ffffff" fill-opacity="0.9">
    <rect x="1120" y="300" width="150" height="300" rx="26"/>
    <rect x="1134" y="318" width="122" height="240" rx="14" fill="url(#bg1)"/>
    <circle cx="1195" cy="600" r="16"/>
  </g>
</svg>